<?xml version="1.0" encoding="iso-8859-1"?>
<!-- Generator: Adobe Illustrator 16.0.0, SVG Export Plug-In . SVG Version: 6.00 Build 0)  -->
<!DOCTYPE svg PUBLIC "-//W3C//DTD SVG 1.1//EN" "http://www.w3.org/Graphics/SVG/1.1/DTD/svg11.dtd">
<svg version="1.1" id="Capa_1" xmlns="http://www.w3.org/2000/svg" xmlns:xlink="http://www.w3.org/1999/xlink" x="0px" y="0px"
	 width="97.701px" height="97.702px" viewBox="0 0 97.701 97.702" style="enable-background:new 0 0 97.701 97.702;"
	 xml:space="preserve">
<g>
	<g>
		<path d="M97.701,60.077c-1.186-0.037-2.372-0.072-3.559-0.103c-7.762-0.19-15.528-0.201-23.293-0.231
			c-2.763-0.011-5.535,0.034-8.287,0.266c-4.27,0.357-8.496,1.041-12.59,2.389c-0.22,0.07-0.611,0.041-0.74-0.104
			c-0.796-0.904-1.54-1.853-2.3-2.785c0.005,0.027,0.318-0.164,0.634-0.352c7.647-4.502,13.838-10.41,17.595-18.566
			c2.976-6.461,3.442-12.945-0.246-19.373c-2.888-5.033-6.616-9.16-12.074-11.441c-3.873-1.616-7.934-1.87-12.071-1.485
			c-5.526,0.514-10.323,2.582-14.185,6.623c-3.973,4.16-6.24,9.063-6.308,14.883c-0.058,5.047,1.675,9.541,4.283,13.762
			c2.961,4.789,6.833,8.742,11.217,12.228c1.305,1.037,2.578,2.11,3.865,3.17c-0.021,0.098-0.044,0.196-0.066,0.295
			c-6.459,1.639-13.103,1.672-19.704,1.996C13.251,61.573,6.624,61.525,0,60.902v3.863c1.645,0.107,3.25,0.306,4.854,0.299
			c5.9-0.016,11.802-0.008,17.697-0.18c6.593-0.191,13.135-0.84,19.397-3.143c0.26-0.097,0.681-0.144,0.859,0
			c0.965,0.762,1.877,1.592,2.879,2.461c-0.38,0.287-0.661,0.471-0.908,0.69c-1.62,1.443-3.369,2.771-4.817,4.367
			c-2.717,3-4.062,6.527-3.154,10.635c1.801,8.146,11.183,12.232,18.337,7.949c3.974-2.381,5.924-5.791,4.393-10.707
			c-1.296-4.158-3.691-7.625-6.568-10.811c-0.281-0.314-0.566-0.621-0.921-1.006c0.298-0.13,0.458-0.207,0.624-0.265
			c3.348-1.151,6.826-1.635,10.333-1.772c4.53-0.181,9.072-0.328,13.601-0.211c6.843,0.174,13.685,0.446,20.525,0.709
			C97.323,62.546,97.514,61.31,97.701,60.077z M44.252,57.107c-0.484,0.273-0.85,0.341-1.337-0.039
			c-5.314-4.137-10.353-8.579-14.107-14.219c-2.499-3.754-4.412-7.873-5.028-12.406c-0.689-5.077,1.254-9.311,4.722-12.899
			c8.434-9.277,20.35-6.068,23.253-4.756c4.804,2.17,8.233,6.135,10.927,10.664c1.885,3.174,2.123,7.481,1.16,10.969
			c-1.697,6.141-5.338,11.07-9.826,15.438C51.09,52.705,47.808,55.093,44.252,57.107z M55.923,76.4
			c1.573,3.566,0.917,6.455-1.96,8.14c-0.973,0.569-2.1,0.93-3.203,1.203c-1.043,0.26-2.146,0.282-3.47,0.438
			c-0.973-0.172-2.205-0.238-3.332-0.619c-3.142-1.062-4.692-3.864-3.925-7.377c1.05-4.805,3.987-8.326,8.063-10.942
			c0.22-0.142,0.773-0.097,0.952,0.082C51.762,70.025,54.352,72.832,55.923,76.4z"/>
	</g>
</g>
<g>
</g>
<g>
</g>
<g>
</g>
<g>
</g>
<g>
</g>
<g>
</g>
<g>
</g>
<g>
</g>
<g>
</g>
<g>
</g>
<g>
</g>
<g>
</g>
<g>
</g>
<g>
</g>
<g>
</g>
</svg>
