<?xml version="1.0" encoding="iso-8859-1"?>
<!-- Generator: Adobe Illustrator 19.0.0, SVG Export Plug-In . SVG Version: 6.00 Build 0)  -->
<svg version="1.1" id="Capa_1" xmlns="http://www.w3.org/2000/svg" xmlns:xlink="http://www.w3.org/1999/xlink" x="0px" y="0px"
	 viewBox="0 0 512.001 512.001" style="enable-background:new 0 0 512.001 512.001;" xml:space="preserve">
<g>
	<g>
		<path d="M311.013,273.676c-24.635-0.148-105.418-0.584-110.542,0.058c-4.114,0.515-7.032,4.267-6.518,8.38
			c0.476,3.798,3.71,6.577,7.44,6.577c0.284,0,0.573-0.017,0.862-0.049c4.985-0.416,67.673-0.199,108.668,0.048
			c0.015,0,0.03,0,0.046,0c4.125,0,7.481-3.331,7.506-7.462C318.499,277.082,315.159,273.701,311.013,273.676z"/>
	</g>
</g>
<g>
	<g>
		<path d="M311.013,300.072c-24.635-0.148-105.416-0.584-110.541,0.058c-4.114,0.514-7.033,4.266-6.519,8.38
			c0.475,3.798,3.708,6.577,7.439,6.577c0.285,0,0.573-0.017,0.862-0.049c4.993-0.416,67.675-0.199,108.668,0.048
			c0.016,0,0.03,0,0.046,0c4.125,0,7.481-3.331,7.506-7.462C318.5,303.478,315.16,300.097,311.013,300.072z"/>
	</g>
</g>
<g>
	<g>
		<path d="M146.434,268.63c-14.122,0-25.611,11.489-25.611,25.61c0,14.123,11.489,25.611,25.611,25.611s25.61-11.489,25.61-25.611
			S160.556,268.63,146.434,268.63z M146.434,304.837c-5.843,0-10.597-4.754-10.597-10.597c0-5.842,4.754-10.596,10.597-10.596
			c5.842,0,10.596,4.753,10.596,10.596S152.276,304.837,146.434,304.837z"/>
	</g>
</g>
<g>
	<g>
		<path d="M365.938,268.63c-14.122,0-25.611,11.489-25.611,25.61c0,14.123,11.489,25.611,25.611,25.611
			c14.122,0,25.61-11.489,25.61-25.611S380.06,268.63,365.938,268.63z M365.938,304.837c-5.843,0-10.597-4.754-10.597-10.597
			c0-5.842,4.753-10.596,10.597-10.596c5.843,0,10.596,4.753,10.596,10.596S371.781,304.837,365.938,304.837z"/>
	</g>
</g>
<g>
	<g>
		<path d="M489.419,101.305H431.26V61.993c0-19.833-16.135-35.969-35.968-35.969h-50.694V12.512C344.598,5.613,338.986,0,332.087,0
			h-24.012c-4.146,0-7.507,3.361-7.507,7.507s3.361,7.507,7.507,7.507h21.51v37.035H182.416V15.014h70.939
			c4.146,0,7.507-3.361,7.507-7.507S257.502,0,253.355,0h-73.442c-6.899,0-12.512,5.613-12.512,12.512v13.513h-50.323
			c-19.833,0-35.968,16.136-35.968,35.969v39.312H22.581c-4.146,0-7.507,3.361-7.507,7.507v25.179v25.179
			c0,4.146,3.36,7.507,7.507,7.507h20.175c6.899,0,12.512-5.613,12.512-12.512v-15.17c0-6.899-5.613-12.512-12.512-12.512H30.088
			v-10.165H81.11v59.867v4.754c0,4.146,3.361,7.507,7.507,7.507s7.507-3.361,7.507-7.507v-4.754v-64.11h152.555v132.325H96.124
			v-10.16c0-4.146-3.36-7.507-7.507-7.507s-7.507,3.361-7.507,7.507v100.628h-5.947c-6.899,0-12.512,5.613-12.512,12.512v29.224
			c0,6.899,5.613,12.512,12.512,12.512h30.374l-8.511,10.953c-1.457,0.927-2.572,2.338-3.116,4.01l-58.113,74.788
			c-1.024,1.317-1.58,2.938-1.58,4.606v21.02c0,4.146,3.361,7.507,7.507,7.507s7.507-3.361,7.507-7.507v-11.511h413.537v11.511
			c0,4.146,3.361,7.507,7.507,7.507s7.507-3.361,7.507-7.507v-21.02c0-1.668-0.555-3.289-1.58-4.606l-69.74-89.751h36.954
			c6.899,0,12.511-5.613,12.511-12.512V347.38c0-6.899-5.613-12.512-12.511-12.512H431.26v-82.96V116.319h50.652v10.165h-12.668
			c-6.899,0-12.512,5.613-12.512,12.512v15.17c0,6.899,5.613,12.512,12.512,12.512h20.175c4.146,0,7.507-3.361,7.507-7.507v-25.179
			v-25.179C496.926,104.666,493.565,101.305,489.419,101.305z M40.254,141.498v10.165H30.088v-10.165H40.254z M86.398,374.102
			h-8.733v-24.22h8.733V374.102z M96.124,97.062V61.993c0-11.554,9.4-20.955,20.954-20.955h50.323v13.513
			c0,6.899,5.613,12.512,12.512,12.512h152.173c6.899,0,12.512-5.613,12.512-12.512V41.038h50.694
			c11.554,0,20.954,9.4,20.954,20.955v35.069H96.124z M101.412,374.102v-24.22h12.033v24.22H101.412z M456.491,477.968H55.509
			l21.298-27.41h358.385L456.491,477.968z M406.714,413.908l16.812,21.636H88.474l16.812-21.636H406.714z M387.45,389.116
			l7.598,9.778H116.952l7.598-9.778H387.45z M128.459,374.102v-24.22h12.033v24.22H128.459z M155.506,374.102v-24.22h12.033v24.22
			H155.506z M182.552,374.102v-24.22h12.033v24.22H182.552z M209.599,374.102v-24.22h12.033v24.22H209.599z M236.646,374.102v-24.22
			h12.033v24.22H236.646z M263.693,374.102v-24.22h12.033v24.22H263.693z M290.74,374.102v-24.22h12.033v24.22H290.74z
			 M317.786,374.102v-24.22h12.033v24.22H317.786z M344.833,374.102v-24.22h12.033v24.22H344.833z M371.88,374.102v-24.22h12.033
			v24.22H371.88z M410.96,374.102h-12.033v-24.22h12.033V374.102z M416.246,334.868H96.124v-75.453h320.122V334.868z
			 M416.247,244.401L416.247,244.401H263.693V112.076h152.554V244.401z M440.915,349.882v24.22h-14.942v-24.22H440.915z
			 M481.912,151.664h-10.166v-10.165h10.166V151.664z"/>
	</g>
</g>
<g>
</g>
<g>
</g>
<g>
</g>
<g>
</g>
<g>
</g>
<g>
</g>
<g>
</g>
<g>
</g>
<g>
</g>
<g>
</g>
<g>
</g>
<g>
</g>
<g>
</g>
<g>
</g>
<g>
</g>
</svg>
