<?xml version="1.0" encoding="iso-8859-1"?>
<!-- Generator: Adobe Illustrator 17.1.0, SVG Export Plug-In . SVG Version: 6.00 Build 0)  -->
<!DOCTYPE svg PUBLIC "-//W3C//DTD SVG 1.1//EN" "http://www.w3.org/Graphics/SVG/1.1/DTD/svg11.dtd">
<svg xmlns="http://www.w3.org/2000/svg" xmlns:xlink="http://www.w3.org/1999/xlink" version="1.1" id="Capa_1" x="0px" y="0px" viewBox="0 0 460 460" style="enable-background:new 0 0 460 460;" xml:space="preserve" width="512px" height="512px">
<path d="M458.594,93.698c-1.803-3.03-5.068-4.887-8.594-4.887H313.701c-3.667,0-7.039,2.007-8.788,5.229l-33.063,60.904  l-33.063-60.904c-1.749-3.222-5.121-5.229-8.788-5.229s-7.039,2.007-8.788,5.229l-33.063,60.904l-33.063-60.904  c-1.749-3.222-5.121-5.229-8.788-5.229H10c-3.525,0-6.791,1.857-8.594,4.887s-1.877,6.785-0.195,9.884l20.239,37.282  c-2.618,1.803-4.337,4.819-4.337,8.239c0,5.523,4.478,10,10,10h4.238l12.921,23.802c-2.668,1.796-4.423,4.843-4.423,8.301  c0,5.523,4.478,10,10,10h4.358l20.017,36.875c1.75,3.222,5.122,5.229,8.789,5.229h29.767l66.582,122.65  c1.749,3.222,5.121,5.229,8.788,5.229s7.039-2.007,8.788-5.229L230,305.056l33.063,60.904c1.749,3.222,5.121,5.229,8.788,5.229  s7.039-2.007,8.788-5.229l66.582-122.65h29.767c3.667,0,7.039-2.007,8.789-5.229l20.017-36.875h4.358c5.522,0,10-4.477,10-10  c0-3.458-1.755-6.505-4.423-8.301l12.921-23.802h4.238c5.522,0,10-4.477,10-10c0-3.42-1.719-6.435-4.337-8.239l20.239-37.282  C460.471,100.484,460.396,96.728,458.594,93.698z M140.349,108.812l39.013,71.864c1.749,3.222,5.121,5.229,8.788,5.229  s7.039-2.007,8.788-5.229L230,119.772l33.063,60.904c1.749,3.222,5.121,5.229,8.788,5.229s7.039-2.007,8.788-5.229l39.013-71.864  h113.542l-16.444,30.292h-80.058c-3.667,0-7.039,2.007-8.788,5.229l-22.19,40.877c-0.586,0.779-1.058,1.644-1.398,2.575  l-32.464,59.802l-33.063-60.904c-1.749-3.222-5.121-5.229-8.788-5.229s-7.039,2.007-8.788,5.229l-33.063,60.904l-32.464-59.802  c-0.34-0.932-0.812-1.797-1.398-2.575l-22.19-40.877c-1.749-3.222-5.121-5.229-8.788-5.229H43.251l-16.444-30.292H140.349z   M117.358,159.103l11.999,22.103H66.107l-11.999-22.103H117.358z M371.037,223.31h-29.767c-3.667,0-7.039,2.007-8.788,5.229  l-60.632,111.689l-33.063-60.904c-1.749-3.222-5.121-5.229-8.788-5.229s-7.039,2.007-8.788,5.229l-33.063,60.904l-60.632-111.689  c-1.749-3.222-5.121-5.229-8.788-5.229H88.963l-11.999-22.104h63.251l39.147,72.111c1.749,3.222,5.121,5.229,8.788,5.229  s7.039-2.007,8.788-5.229L230,212.414l33.063,60.904c1.749,3.222,5.121,5.229,8.788,5.229s7.039-2.007,8.788-5.229l39.147-72.111  h63.251L371.037,223.31z M393.893,181.206h-63.251l11.999-22.103h63.251L393.893,181.206z" fill="#FFFFFF"/>
<g>
</g>
<g>
</g>
<g>
</g>
<g>
</g>
<g>
</g>
<g>
</g>
<g>
</g>
<g>
</g>
<g>
</g>
<g>
</g>
<g>
</g>
<g>
</g>
<g>
</g>
<g>
</g>
<g>
</g>
</svg>
